<svg xmlns="http://www.w3.org/2000/svg" xmlns:xlink="http://www.w3.org/1999/xlink" style="position: absolute; left: -9999px;">
  <symbol viewBox="0 0 512 512" id="business">
    <path d="M256 256c61.875 0 112-57.313 112-128S317.875 0 256 0c-61.844 0-112 57.313-112 128s50.156 128 112 128zm0-32c-17.688 0-32-14.328-32-32h64c0 17.672-14.312 32-32 32zm-74.937-107.187c16.344 12.2 48.1 7.7 76-12.03 14.063-9.907 24.53-21.97 31-34.017C316.25 83.1 336 111.2 336 144c0 15.844-4.75 30.5-12.688 42.922L256 160l-67.313 26.922C180.75 174.5 176 159.8 176 144c0-9.594 2-18.672 5.063-27.187zM384 288h-64l-64 96-64-96h-64c-35.313 0-64 28.656-64 64v128c0 17.7 14.3 32 32 32h320c17.688 0 32-14.312 32-32V352c0-35.344-28.625-64-64-64z"/>
  </symbol>
  <symbol viewBox="0 0 612 612" fill="#fff" enable-background="new 0 0 612 612" id="cross">
    <path d="M612 36.004L576.52.604 306 270.6 35.478.603 0 36.003l270.522 270.008L0 575.998l35.478 35.4L306 341.41l270.52 270 35.48-35.4L341.46 306.01z"/>
  </symbol>
  <symbol viewBox="0 0 440 440" id="woman">
    <path d="M398.78 400.842c-.584-3.45-1.192-6.896-1.822-10.347-7.226-39.39-19.038-102.017-64.124-135.877 3.326-22.054 5.03-56.337 5.03-107.33C337.863 65.9 285.1 0 220 0c-44.375 0-72.592 31.445-72.592 31.445-27.487 27-45.27 68.793-45.27 116 0 50.8 1.8 85.1 5 107.114-45.29 33.524-56.883 96.658-64.115 136.072-.627 3.442-1.235 6.89-1.82 10.334-3.093 18.2 9.2 35.5 27.4 38.6 1.896.322 3.777.478 5.638.478l116.984-.03.003-.023 174.585-.078c1.86 0 3.743-.154 5.636-.48 18.202-3.09 30.452-20.346 27.36-38.548zm-178.746-76.438l-62.152-31.666 32.238-50.824c8.74 4.5 20.3 7 29.9 7 9.7 0 20.98-2.578 29.75-7.073l32.157 50.924-61.873 31.654zM220 226.9c-59.158 0-84.628-80.045-79.546-105.04C205.49 65.3 263.1 69.2 263.1 69.206s10.323 32.1 36.9 70.74C295.276 178.1 256.6 226.9 220 226.9z"/>
  </symbol>
</svg>
