<svg xmlns="http://www.w3.org/2000/svg" width="440" height="440" viewBox="0 0 440 440"><path d="M398.78 400.842c-.584-3.45-1.192-6.896-1.822-10.347-7.226-39.39-19.038-102.017-64.124-135.877 3.326-22.054 5.03-56.337 5.03-107.33C337.863 65.88 285.073 0 220 0c-44.375 0-72.592 31.445-72.592 31.445-27.487 27-45.27 68.793-45.27 116.003 0 50.848 1.778 85.142 5.018 107.114-45.29 33.524-56.883 96.658-64.115 136.072-.627 3.442-1.235 6.89-1.82 10.334-3.093 18.202 9.156 35.46 27.355 38.554 1.896.322 3.777.478 5.638.478l116.984-.03.003-.023 174.585-.078c1.86 0 3.743-.154 5.636-.48 18.202-3.09 30.452-20.346 27.36-38.548zm-178.746-76.438l-62.152-31.666 32.238-50.824c8.74 4.458 20.255 6.986 29.88 6.986 9.664 0 20.98-2.578 29.75-7.073l32.157 50.924-61.873 31.654zM220 226.9c-59.158 0-84.628-80.045-79.546-105.04C205.49 65.3 263.068 69.206 263.068 69.206s10.323 32.06 36.873 70.74C295.276 178.07 256.648 226.9 220 226.9z"/></svg>